<?xml version="1.0" encoding="UTF-8"?>
<svg fill="#8a641f" id="Vector" xmlns="http://www.w3.org/2000/svg" viewBox="0 0 3470 500">
  <defs>
    <style>
      .cls-1 {
        fill: #8a641f;
        fill-rule: evenodd;
      }

      .cls-1, .cls-2, .cls-3, .cls-4 {
        stroke-width: 0px;
      }

      .cls-3 {
        fill: #8a641f;
      }

      .cls-4 {
        fill: #8a641f;
      }
    </style>
  </defs>
  <g id="Dark_Blue" data-name="Dark Blue">
    <path class="cls-4" d="M386.28,297.33c20.22-40.44,23.6-89.36,6.76-135.15-19.35-52.61-61.99-89.91-111.97-104.49,67.69,10.05,127.93,55.81,153.2,124.57,36.84,100.2-14.52,211.3-114.73,248.14-100.2,36.84-211.3-14.52-248.14-114.73-13.44-36.54-15.13-74.53-7.02-109.85-2.16,24.21.87,49.26,9.81,73.58,32.37,88.05,129.99,133.18,218.03,100.81,42.25-15.53,75.38-45.56,94.04-82.88h0Z"/>
  </g>
  <g id="Mid_Blue" data-name="Mid Blue">
    <path class="cls-3" d="M74.21,279.4c32.37,88.05,129.99,133.17,218.03,100.81,42.26-15.53,75.38-45.56,94.04-82.88,6.56-13.13,11.34-27.15,14.24-41.67-8.2,26.19-23.21,50.64-44.91,70.51-65.59,60.05-167.45,55.56-227.5-10.03-53.88-58.85-55.8-146.89-8.26-207.74-28.66,27.28-47.23,61.38-55.46,97.44-4.43,38.15,9.81,73.56,9.81,73.56h0Z"/>
  </g>
  <g id="Light_Blue" data-name="Light Blue">
    <path class="cls-1" d="M355.62,326.17c21.7-19.87,36.71-44.32,44.91-70.52,1.39-6.96,2.35-14.03,2.85-21.17-12.57,48.14-48.9,88.91-99.87,104.86-78.66,24.61-162.38-19.2-187-97.86-21.23-67.84,8.44-139.44,67.46-173.65-24.55,9.48-46.19,23.49-64.26,40.76-47.39,60.84-45.41,148.76,8.41,207.54,60.05,65.59,161.91,70.08,227.5,10.03h0Z"/>
  </g>
  <g id="Wordmark">
    <path class="cls-2" d="M596.72,405.25V94.45h119.44c23.38,0,44.99,3.93,64.82,11.77,19.83,7.85,37.14,18.87,51.95,33.08,14.8,14.21,26.42,30.79,34.85,49.73,8.44,18.95,12.65,39.37,12.65,61.27s-4.15,42.62-12.43,61.27c-8.29,18.65-19.91,35.01-34.85,49.06-14.95,14.06-32.34,25.02-52.17,32.86-19.83,7.85-41.45,11.77-64.82,11.77h-119.44ZM661.1,347.97h54.17c13.91,0,26.86-2.44,38.85-7.33,11.99-4.88,22.49-11.77,31.52-20.65,9.03-8.88,15.98-19.24,20.87-31.08,4.88-11.83,7.33-24.71,7.33-38.63s-2.52-26.86-7.55-38.85c-5.04-11.99-11.99-22.42-20.87-31.3-8.88-8.88-19.31-15.83-31.3-20.87-11.99-5.03-24.94-7.55-38.85-7.55h-54.17v196.25Z"/>
    <path class="cls-2" d="M867.11,405.25l127.87-310.8h74.15l126.54,310.8h-69.71l-31.52-81.7h-128.32l-31.97,81.7h-67.04ZM986.1,272.05h88.8l-44.4-114.55-44.4,114.55Z"/>
    <path class="cls-2" d="M1329.31,409.69c-25.16,0-49.73-4.66-73.7-13.99-23.98-9.32-45.29-22.57-63.94-39.74l36.85-46.18c18.05,15.98,35.44,27.53,52.17,34.63,16.72,7.1,34.41,10.66,53.06,10.66,13.02,0,24.27-1.55,33.74-4.66,9.47-3.11,16.8-7.62,21.98-13.54,5.18-5.92,7.77-12.88,7.77-20.87,0-10.66-3.85-18.87-11.54-24.64-7.7-5.77-20.87-10.28-39.52-13.54l-61.72-10.66c-26.35-4.44-46.4-13.76-60.16-27.97-13.76-14.21-20.65-32.56-20.65-55.06,0-19.24,4.95-35.96,14.87-50.17,9.91-14.21,23.98-25.09,42.18-32.63s39.88-11.32,65.05-11.32c22.79,0,45.51,3.85,68.15,11.54,22.64,7.7,42.69,18.36,60.16,31.97l-34.63,47.95c-32.56-24.86-65.27-37.3-98.12-37.3-11.54,0-21.61,1.49-30.19,4.44-8.59,2.96-15.17,7.03-19.76,12.21-4.59,5.18-6.88,11.32-6.88,18.43,0,9.48,3.4,16.8,10.21,21.98,6.81,5.18,18.2,9.1,34.19,11.77l58.61,9.77c31.08,5.04,54.31,14.87,69.71,29.53,15.39,14.65,23.09,33.97,23.09,57.94,0,20.13-5.33,37.67-15.98,52.61-10.66,14.95-25.83,26.5-45.51,34.63-19.69,8.14-42.85,12.21-69.49,12.21Z"/>
    <path class="cls-2" d="M1488.26,405.25V94.45h64.38v125.21h142.97v-125.21h64.38v310.8h-64.38v-127.43h-142.97v127.43h-64.38Z"/>
    <path class="cls-2" d="M1992.2,409.69c-24.57,0-48.1-4.95-70.6-14.87-22.5-9.91-42.33-24.2-59.5-42.85l22.64-23.53c15.98,17.17,33.08,30.05,51.28,38.63,18.2,8.59,37.37,12.88,57.5,12.88,16.28,0,30.71-2.59,43.29-7.77,12.58-5.17,22.42-12.43,29.53-21.76,7.1-9.32,10.66-19.9,10.66-31.75,0-15.98-5.55-28.26-16.65-36.85-11.1-8.58-29.38-14.94-54.83-19.09l-44.84-7.1c-29.9-5.03-51.95-13.91-66.16-26.64-14.21-12.72-21.31-30.04-21.31-51.95,0-17.16,4.58-32.26,13.76-45.29,9.17-13.02,21.98-23.16,38.41-30.41,16.43-7.25,35.44-10.88,57.05-10.88s43.44,3.55,64.6,10.66c21.16,7.1,40.47,17.32,57.94,30.64l-19.54,26.64c-34.04-25.75-68.82-38.63-104.34-38.63-14.8,0-27.83,2.3-39.07,6.88-11.25,4.59-19.98,10.96-26.2,19.09-6.22,8.14-9.32,17.69-9.32,28.64,0,14.51,4.88,25.61,14.65,33.3,9.77,7.7,25.9,13.32,48.4,16.87l44.4,7.1c34.04,5.63,58.75,15.17,74.15,28.64,15.39,13.47,23.09,32.34,23.09,56.61,0,18.06-5.04,34.12-15.1,48.17-10.07,14.06-24.05,25.02-41.96,32.86-17.91,7.84-38.56,11.77-61.94,11.77Z"/>
    <path class="cls-2" d="M2293.23,410.13c-22.5,0-43.44-4.07-62.83-12.21-19.39-8.14-36.41-19.54-51.06-34.19-14.65-14.65-26.05-31.67-34.19-51.06-8.14-19.38-12.21-40.33-12.21-62.83s4.07-43.44,12.21-62.83c8.14-19.38,19.54-36.41,34.19-51.06,14.65-14.65,31.67-26.04,51.06-34.19,19.38-8.14,40.33-12.21,62.83-12.21s42.99,4.07,62.38,12.21c19.38,8.14,36.41,19.54,51.06,34.19,14.65,14.65,26.04,31.68,34.19,51.06,8.14,19.39,12.21,40.33,12.21,62.83s-4.07,43.44-12.21,62.83c-8.14,19.39-19.54,36.41-34.19,51.06s-31.68,26.05-51.06,34.19c-19.39,8.14-40.18,12.21-62.38,12.21ZM2293.23,378.61c17.76,0,34.19-3.25,49.28-9.77,15.1-6.51,28.34-15.61,39.74-27.31,11.39-11.69,20.27-25.38,26.64-41.07,6.36-15.69,9.55-32.56,9.55-50.62s-3.18-35.3-9.55-50.84c-6.37-15.54-15.25-29.15-26.64-40.85-11.4-11.69-24.64-20.79-39.74-27.31-15.1-6.51-31.52-9.77-49.28-9.77s-34.26,3.26-49.51,9.77c-15.25,6.51-28.57,15.62-39.96,27.31-11.4,11.7-20.28,25.31-26.64,40.85-6.37,15.54-9.55,32.34-9.55,50.39s3.18,35.37,9.55,51.06c6.36,15.69,15.24,29.38,26.64,41.07,11.39,11.7,24.71,20.8,39.96,27.31,15.24,6.51,31.75,9.77,49.51,9.77Z"/>
    <path class="cls-2" d="M2643.1,410.13c-22.5,0-43.51-4.07-63.05-12.21s-36.71-19.54-51.5-34.19c-14.8-14.65-26.27-31.67-34.41-51.06-8.14-19.38-12.21-40.33-12.21-62.83s4.07-43.44,12.21-62.83c8.14-19.38,19.61-36.41,34.41-51.06,14.8-14.65,31.97-26.04,51.5-34.19,19.54-8.14,40.55-12.21,63.05-12.21,16.28,0,31.89,2,46.84,5.99,14.94,4,28.86,9.77,41.74,17.32s24.34,16.8,34.41,27.75l-22.64,23.98c-12.14-13.91-27.08-24.64-44.84-32.19s-36.26-11.32-55.5-11.32c-18.06,0-34.78,3.26-50.17,9.77-15.39,6.51-28.79,15.62-40.18,27.31-11.4,11.7-20.28,25.31-26.64,40.85-6.37,15.54-9.55,32.49-9.55,50.84s3.18,34.93,9.55,50.62c6.36,15.69,15.32,29.38,26.86,41.07,11.54,11.7,25.09,20.8,40.63,27.31,15.54,6.51,32.34,9.77,50.39,9.77,19.24,0,37.59-3.77,55.06-11.32,17.46-7.55,32.11-17.98,43.96-31.3l22.2,23.09c-10.36,10.66-21.98,19.83-34.85,27.53-12.88,7.7-26.72,13.54-41.51,17.54-14.8,4-30.05,5.99-45.73,5.99Z"/>
    <path class="cls-2" d="M2806.92,405.25V94.45h34.19v310.8h-34.19Z"/>
    <path class="cls-2" d="M2866.86,405.25l128.76-310.8h41.29l127.87,310.8h-37.3l-39.07-97.68h-146.52l-39.52,97.68h-35.52ZM2953.88,278.26h122.54l-61.27-152.29-61.27,152.29Z"/>
    <path class="cls-2" d="M3190.53,405.25V94.45h34.19v280.16h185.15v30.64h-219.34Z"/>
  </g>
</svg>